<svg xmlns="http://www.w3.org/2000/svg" width="273.007" height="273.084" viewBox="0 0 273.007 273.084">
  <g id="Group_130" data-name="Group 130" transform="translate(-128.493 -1361.416)" opacity="0.4">
    <path id="Path_266" data-name="Path 266" d="M387.306,1443.094l-220.988,145.55c1.28,1.391,2.585,2.764,3.93,4.108.948.949,1.913,1.876,2.885,2.793L390.955,1452.08Q389.294,1447.522,387.306,1443.094Z" fill="none" stroke="#f62ae8" stroke-miterlimit="10" stroke-width="3"/>
    <path id="Path_267" data-name="Path 267" d="M390.955,1452.08,173.133,1595.545q3.756,3.543,7.734,6.761L394.1,1461.867Q392.716,1456.907,390.955,1452.08Z" fill="none" stroke="#f62ae8" stroke-miterlimit="10" stroke-width="3"/>
    <path id="Path_268" data-name="Path 268" d="M382.443,1433.369,159.271,1580.357q3.336,4.266,7.047,8.287l220.988-145.55Q385.08,1438.138,382.443,1433.369Z" fill="none" stroke="#f62ae8" stroke-miterlimit="10" stroke-width="3"/>
    <path id="Path_269" data-name="Path 269" d="M371.362,1416.471l-223.3,147.073q2.452,4.362,5.24,8.549l223.876-147.452Q374.432,1420.461,371.362,1416.471Z" fill="none" stroke="#f62ae8" stroke-miterlimit="10" stroke-width="3"/>
    <path id="Path_270" data-name="Path 270" d="M259.929,1631.9c1.686.062,3.375.1,5.071.1a136.185,136.185,0,0,0,13.846-.708L382.071,1563.3a132.25,132.25,0,0,0,8.058-17.162Z" fill="none" stroke="#f62ae8" stroke-miterlimit="10" stroke-width="3"/>
    <path id="Path_271" data-name="Path 271" d="M377.177,1424.641,153.3,1572.093q2.818,4.23,5.97,8.264l223.172-146.988Q379.983,1428.916,377.177,1424.641Z" fill="none" stroke="#f62ae8" stroke-miterlimit="10" stroke-width="3"/>
    <path id="Path_272" data-name="Path 272" d="M365.326,1409.177l-221.61,145.96q2.018,4.277,4.345,8.407l223.3-147.073Q368.485,1412.733,365.326,1409.177Z" fill="none" stroke="#f62ae8" stroke-miterlimit="10" stroke-width="3"/>
    <path id="Path_273" data-name="Path 273" d="M394.1,1461.867,180.867,1602.306q4.514,3.654,9.287,6.883l206.55-136.04Q395.639,1467.439,394.1,1461.867Z" fill="none" stroke="#f62ae8" stroke-miterlimit="10" stroke-width="3"/>
    <path id="Path_274" data-name="Path 274" d="M398.759,1505.968,219.426,1624.083a132.652,132.652,0,0,0,13.544,4.08L397.206,1519.99A134.949,134.949,0,0,0,398.759,1505.968Z" fill="none" stroke="#f62ae8" stroke-miterlimit="10" stroke-width="3"/>
    <path id="Path_275" data-name="Path 275" d="M396.7,1473.149l-206.55,136.04q4.173,2.823,8.528,5.312l199.495-131.4Q397.625,1478.084,396.7,1473.149Z" fill="none" stroke="#f62ae8" stroke-miterlimit="10" stroke-width="3"/>
    <path id="Path_276" data-name="Path 276" d="M394.737,1531.717l-149.964,98.772a135.45,135.45,0,0,0,15.156,1.407l130.2-85.754A132.384,132.384,0,0,0,394.737,1531.717Z" fill="none" stroke="#f62ae8" stroke-miterlimit="10" stroke-width="3"/>
    <path id="Path_277" data-name="Path 277" d="M397.206,1519.99,232.97,1628.163q5.826,1.422,11.8,2.326l149.964-98.772Q396.231,1525.93,397.206,1519.99Z" fill="none" stroke="#f62ae8" stroke-miterlimit="10" stroke-width="3"/>
    <path id="Path_278" data-name="Path 278" d="M398.177,1483.106,198.682,1614.5q4.741,2.709,9.682,5.013L398.935,1494Q398.776,1488.51,398.177,1483.106Z" fill="none" stroke="#f62ae8" stroke-miterlimit="10" stroke-width="3"/>
    <path id="Path_279" data-name="Path 279" d="M399,1498c0-1.338-.026-2.672-.065-4L208.364,1619.514q5.426,2.532,11.062,4.569l179.333-118.115C398.913,1503.325,399,1500.669,399,1498Z" fill="none" stroke="#f62ae8" stroke-miterlimit="10" stroke-width="3"/>
    <path id="Path_280" data-name="Path 280" d="M342.5,1388.65,133.927,1526.022q1.089,5.141,2.571,10.162L350.78,1395.051Q346.747,1391.679,342.5,1388.65Z" fill="none" stroke="#f62ae8" stroke-miterlimit="10" stroke-width="3"/>
    <path id="Path_281" data-name="Path 281" d="M170.248,1403.248a135.861,135.861,0,0,0-11.951,13.671l74.434-49.025A133.157,133.157,0,0,0,170.248,1403.248Z" fill="none" stroke="#f62ae8" stroke-miterlimit="10" stroke-width="3"/>
    <path id="Path_282" data-name="Path 282" d="M232.731,1367.894,158.3,1416.919a133.221,133.221,0,0,0-12.4,19.558l109.526-72.138A134.3,134.3,0,0,0,232.731,1367.894Z" fill="none" stroke="#f62ae8" stroke-miterlimit="10" stroke-width="3"/>
    <path id="Path_283" data-name="Path 283" d="M265,1364q-4.818,0-9.579.339L145.9,1436.477a132.26,132.26,0,0,0-7.214,16.606l134.838-88.808C270.694,1364.1,267.855,1364,265,1364Z" fill="none" stroke="#f62ae8" stroke-miterlimit="10" stroke-width="3"/>
    <path id="Path_284" data-name="Path 284" d="M273.519,1364.275l-134.838,88.808a132.853,132.853,0,0,0-4.567,16.008l156-102.746A134.646,134.646,0,0,0,273.519,1364.275Z" fill="none" stroke="#f62ae8" stroke-miterlimit="10" stroke-width="3"/>
    <path id="Path_285" data-name="Path 285" d="M299.958,1627.411l70.021-46.118a133.555,133.555,0,0,0,12.092-17.989l-103.225,67.988A133.807,133.807,0,0,0,299.958,1627.411Z" fill="none" stroke="#f62ae8" stroke-miterlimit="10" stroke-width="3"/>
    <path id="Path_286" data-name="Path 286" d="M359.752,1403.248c-.223-.224-.452-.439-.677-.661L140.128,1546.793q1.651,4.232,3.588,8.344l221.61-145.96Q362.635,1406.146,359.752,1403.248Z" fill="none" stroke="#f62ae8" stroke-miterlimit="10" stroke-width="3"/>
    <path id="Path_287" data-name="Path 287" d="M359.752,1592.752a136.153,136.153,0,0,0,10.227-11.459l-70.021,46.118A133.207,133.207,0,0,0,359.752,1592.752Z" fill="none" stroke="#f62ae8" stroke-miterlimit="10" stroke-width="3"/>
    <path id="Path_288" data-name="Path 288" d="M333.832,1382.968l-201.66,132.82q.681,5.168,1.755,10.234L342.5,1388.65Q338.263,1385.636,333.832,1382.968Z" fill="none" stroke="#f62ae8" stroke-miterlimit="10" stroke-width="3"/>
    <path id="Path_289" data-name="Path 289" d="M324.78,1378,131.212,1505.493q.283,5.187.96,10.295l201.66-132.82Q329.4,1380.3,324.78,1378Z" fill="none" stroke="#f62ae8" stroke-miterlimit="10" stroke-width="3"/>
    <path id="Path_290" data-name="Path 290" d="M290.114,1366.345l-156,102.746q-1.178,5.387-1.911,10.894L300.94,1368.849Q295.6,1367.37,290.114,1366.345Z" fill="none" stroke="#f62ae8" stroke-miterlimit="10" stroke-width="3"/>
    <path id="Path_291" data-name="Path 291" d="M350.78,1395.051,136.5,1536.184q1.593,5.385,3.63,10.609l218.947-144.206Q355.061,1398.628,350.78,1395.051Z" fill="none" stroke="#f62ae8" stroke-miterlimit="10" stroke-width="3"/>
    <path id="Path_292" data-name="Path 292" d="M312.944,1372.8,131.117,1492.555c-.071,1.81-.117,3.624-.117,5.445,0,2.509.076,5.007.212,7.493L324.78,1378Q318.99,1375.111,312.944,1372.8Z" fill="none" stroke="#f62ae8" stroke-miterlimit="10" stroke-width="3"/>
    <path id="Path_293" data-name="Path 293" d="M300.94,1368.849,132.2,1479.985q-.831,6.224-1.086,12.57L312.944,1372.8Q307.048,1370.542,300.94,1368.849Z" fill="none" stroke="#f62ae8" stroke-miterlimit="10" stroke-width="3"/>
    <path id="Path_294" data-name="Path 294" d="M396.7,1473.149l.892-.588q-1.091-5.717-2.646-11.257l-.854.563Q395.644,1467.432,396.7,1473.149Z" fill="#fff" stroke="#f62ae8" stroke-miterlimit="10" stroke-width="3"/>
    <path id="Path_295" data-name="Path 295" d="M394.1,1461.867l.854-.563q-1.4-4.966-3.161-9.773l-.834.549Q392.71,1456.906,394.1,1461.867Z" fill="#fff" stroke="#f62ae8" stroke-miterlimit="10" stroke-width="3"/>
    <path id="Path_296" data-name="Path 296" d="M382.443,1433.369l.808-.532q-2.469-4.473-5.263-8.731l-.811.535Q379.982,1428.912,382.443,1433.369Z" fill="#fff" stroke="#f62ae8" stroke-miterlimit="10" stroke-width="3"/>
    <path id="Path_297" data-name="Path 297" d="M390.955,1452.08l.834-.549q-1.676-4.568-3.665-8.976l-.818.539Q389.295,1447.517,390.955,1452.08Z" fill="#fff" stroke="#f62ae8" stroke-miterlimit="10" stroke-width="3"/>
    <path id="Path_298" data-name="Path 298" d="M398.177,1483.106l.931-.613q-.574-5.025-1.512-9.932l-.892.588Q397.623,1478.081,398.177,1483.106Z" fill="#fff" stroke="#f62ae8" stroke-miterlimit="10" stroke-width="3"/>
    <path id="Path_299" data-name="Path 299" d="M387.306,1443.094l.818-.539q-2.242-4.971-4.873-9.718l-.808.532Q385.074,1438.136,387.306,1443.094Z" fill="#fff" stroke="#f62ae8" stroke-miterlimit="10" stroke-width="3"/>
    <path id="Path_300" data-name="Path 300" d="M390.129,1546.142l1.366-.9a133.943,133.943,0,0,0,4.455-14.324l-1.213.8A132.384,132.384,0,0,1,390.129,1546.142Z" fill="#fff" stroke="#f62ae8" stroke-miterlimit="10" stroke-width="3"/>
    <path id="Path_301" data-name="Path 301" d="M382.071,1563.3l1.733-1.141a134.276,134.276,0,0,0,7.691-16.921l-1.366.9A132.25,132.25,0,0,1,382.071,1563.3Z" fill="#fff" stroke="#f62ae8" stroke-miterlimit="10" stroke-width="3"/>
    <path id="Path_302" data-name="Path 302" d="M398.935,1494l.977-.643q-.186-5.489-.8-10.86l-.931.613Q398.771,1488.508,398.935,1494Z" fill="#fff" stroke="#f62ae8" stroke-miterlimit="10" stroke-width="3"/>
    <path id="Path_303" data-name="Path 303" d="M394.737,1531.717l1.213-.8q1.438-5.741,2.38-11.668l-1.124.74Q396.233,1525.926,394.737,1531.717Z" fill="#fff" stroke="#f62ae8" stroke-miterlimit="10" stroke-width="3"/>
    <path id="Path_304" data-name="Path 304" d="M399,1498c0,2.669-.087,5.325-.241,7.968l1.044-.688q.192-3.617.2-7.28c0-1.556-.036-3.1-.088-4.647l-.977.643C398.974,1495.328,399,1496.662,399,1498Z" fill="#fff" stroke="#f62ae8" stroke-miterlimit="10" stroke-width="3"/>
    <path id="Path_305" data-name="Path 305" d="M397.206,1519.99l1.124-.74a135.355,135.355,0,0,0,1.473-13.97l-1.044.688A134.949,134.949,0,0,1,397.206,1519.99Z" fill="#fff" stroke="#f62ae8" stroke-miterlimit="10" stroke-width="3"/>
    <path id="Path_306" data-name="Path 306" d="M377.177,1424.641l.811-.535q-2.752-4.2-5.8-8.177l-.823.542Q374.431,1420.458,377.177,1424.641Z" fill="#fff" stroke="#f62ae8" stroke-miterlimit="10" stroke-width="3"/>
    <path id="Path_307" data-name="Path 307" d="M170.248,1592.752c-1.345-1.344-2.65-2.717-3.93-4.108l-.847.558q3.278,3.574,6.8,6.908l.858-.565C172.161,1594.628,171.2,1593.7,170.248,1592.752Z" fill="#fff" stroke="#f62ae8" stroke-miterlimit="10" stroke-width="3"/>
    <path id="Path_308" data-name="Path 308" d="M133.927,1526.022l-.881.58q1.11,5.145,2.606,10.139l.846-.557Q135.015,1531.167,133.927,1526.022Z" fill="#fff" stroke="#f62ae8" stroke-miterlimit="10" stroke-width="3"/>
    <path id="Path_309" data-name="Path 309" d="M159.271,1580.357l-.821.542q3.345,4.293,7.021,8.3l.847-.558Q162.615,1584.621,159.271,1580.357Z" fill="#fff" stroke="#f62ae8" stroke-miterlimit="10" stroke-width="3"/>
    <path id="Path_310" data-name="Path 310" d="M190.154,1609.189l-.883.582q4.146,2.815,8.5,5.327l.907-.6Q194.329,1612.014,190.154,1609.189Z" fill="#fff" stroke="#f62ae8" stroke-miterlimit="10" stroke-width="3"/>
    <path id="Path_311" data-name="Path 311" d="M180.867,1602.306l-.865.57q4.482,3.638,9.269,6.9l.883-.582Q185.383,1605.964,180.867,1602.306Z" fill="#fff" stroke="#f62ae8" stroke-miterlimit="10" stroke-width="3"/>
    <path id="Path_312" data-name="Path 312" d="M173.133,1595.545l-.858.565q3.73,3.528,7.727,6.766l.865-.57Q176.894,1599.087,173.133,1595.545Z" fill="#fff" stroke="#f62ae8" stroke-miterlimit="10" stroke-width="3"/>
    <path id="Path_313" data-name="Path 313" d="M140.128,1546.793l-.826.544q1.665,4.239,3.609,8.33l.805-.53Q141.777,1551.028,140.128,1546.793Z" fill="#fff" stroke="#f62ae8" stroke-miterlimit="10" stroke-width="3"/>
    <path id="Path_314" data-name="Path 314" d="M136.5,1536.184l-.846.557q1.613,5.4,3.65,10.6l.826-.544Q138.089,1541.573,136.5,1536.184Z" fill="#fff" stroke="#f62ae8" stroke-miterlimit="10" stroke-width="3"/>
    <path id="Path_315" data-name="Path 315" d="M143.716,1555.137l-.805.53q2.028,4.289,4.347,8.406l.8-.529Q145.737,1559.415,143.716,1555.137Z" fill="#fff" stroke="#f62ae8" stroke-miterlimit="10" stroke-width="3"/>
    <path id="Path_316" data-name="Path 316" d="M148.061,1563.544l-.8.529q2.463,4.38,5.235,8.552l.808-.532Q150.514,1567.909,148.061,1563.544Z" fill="#fff" stroke="#f62ae8" stroke-miterlimit="10" stroke-width="3"/>
    <path id="Path_317" data-name="Path 317" d="M153.3,1572.093l-.808.532q2.826,4.251,5.957,8.274l.821-.542Q156.119,1576.327,153.3,1572.093Z" fill="#fff" stroke="#f62ae8" stroke-miterlimit="10" stroke-width="3"/>
    <path id="Path_318" data-name="Path 318" d="M278.846,1631.292l-1.767,1.164a134.7,134.7,0,0,0,20.368-3.391l2.511-1.654A133.807,133.807,0,0,1,278.846,1631.292Z" fill="#fff" stroke="#f62ae8" stroke-miterlimit="10" stroke-width="3"/>
    <path id="Path_319" data-name="Path 319" d="M198.682,1614.5l-.907.6q4.707,2.707,9.649,5.034l.94-.618Q203.427,1617.21,198.682,1614.5Z" fill="#fff" stroke="#f62ae8" stroke-miterlimit="10" stroke-width="3"/>
    <path id="Path_320" data-name="Path 320" d="M359.752,1592.752a133.207,133.207,0,0,1-59.794,34.659l-2.511,1.654a135.079,135.079,0,0,0,75.1-49.461l-2.563,1.689A136.153,136.153,0,0,1,359.752,1592.752Z" fill="#fff" stroke="#f62ae8" stroke-miterlimit="10" stroke-width="3"/>
    <path id="Path_321" data-name="Path 321" d="M382.071,1563.3a133.555,133.555,0,0,1-12.092,17.989l2.563-1.689a134.957,134.957,0,0,0,11.262-17.441Z" fill="#fff" stroke="#f62ae8" stroke-miterlimit="10" stroke-width="3"/>
    <path id="Path_322" data-name="Path 322" d="M265,1632c-1.7,0-3.385-.042-5.071-.1l-1.435.945c2.156.1,4.325.159,6.506.159,4.072,0,8.1-.191,12.079-.544l1.767-1.164A136.185,136.185,0,0,1,265,1632Z" fill="#fff" stroke="#f62ae8" stroke-miterlimit="10" stroke-width="3"/>
    <path id="Path_323" data-name="Path 323" d="M208.364,1619.514l-.94.618q5.375,2.538,11,4.614l1.007-.663Q213.794,1622.051,208.364,1619.514Z" fill="#fff" stroke="#f62ae8" stroke-miterlimit="10" stroke-width="3"/>
    <path id="Path_324" data-name="Path 324" d="M219.426,1624.083l-1.007.663a133.968,133.968,0,0,0,13.438,4.149l1.113-.732A132.652,132.652,0,0,1,219.426,1624.083Z" fill="#fff" stroke="#f62ae8" stroke-miterlimit="10" stroke-width="3"/>
    <path id="Path_325" data-name="Path 325" d="M244.773,1630.489l-1.226.807a135.316,135.316,0,0,0,14.947,1.545l1.435-.945A135.45,135.45,0,0,1,244.773,1630.489Z" fill="#fff" stroke="#f62ae8" stroke-miterlimit="10" stroke-width="3"/>
    <path id="Path_326" data-name="Path 326" d="M232.97,1628.163l-1.113.732q5.751,1.452,11.69,2.4l1.226-.807Q238.8,1629.591,232.97,1628.163Z" fill="#fff" stroke="#f62ae8" stroke-miterlimit="10" stroke-width="3"/>
    <path id="Path_327" data-name="Path 327" d="M359.752,1403.248q2.89,2.891,5.574,5.929l.841-.554q-3.009-3.4-6.237-6.6l-.855.563C359.3,1402.809,359.529,1403.024,359.752,1403.248Z" fill="#fff" stroke="#f62ae8" stroke-miterlimit="10" stroke-width="3"/>
    <path id="Path_328" data-name="Path 328" d="M312.944,1372.8l.988-.651q-5.832-2.268-11.914-4.008l-1.078.71Q307.044,1370.536,312.944,1372.8Z" fill="#fff" stroke="#f62ae8" stroke-miterlimit="10" stroke-width="3"/>
    <path id="Path_329" data-name="Path 329" d="M324.78,1378l.924-.608q-5.736-2.894-11.772-5.247l-.988.651Q318.985,1375.108,324.78,1378Z" fill="#fff" stroke="#f62ae8" stroke-miterlimit="10" stroke-width="3"/>
    <path id="Path_330" data-name="Path 330" d="M132.172,1515.788l-.919.606q.7,5.169,1.793,10.208l.881-.58Q132.855,1520.958,132.172,1515.788Z" fill="#fff" stroke="#f62ae8" stroke-miterlimit="10" stroke-width="3"/>
    <path id="Path_331" data-name="Path 331" d="M265,1364c2.855,0,5.694.1,8.519.275l1.384-.912q-4.905-.356-9.9-.363c-2.654,0-5.288.085-7.9.236l-1.674,1.1Q260.18,1364.006,265,1364Z" fill="#fff" stroke="#f62ae8" stroke-miterlimit="10" stroke-width="3"/>
    <path id="Path_332" data-name="Path 332" d="M290.114,1366.345l1.18-.777a134.843,134.843,0,0,0-16.391-2.2l-1.384.912A134.646,134.646,0,0,1,290.114,1366.345Z" fill="#fff" stroke="#f62ae8" stroke-miterlimit="10" stroke-width="3"/>
    <path id="Path_333" data-name="Path 333" d="M333.832,1382.968l.893-.588q-4.4-2.661-9.021-4.986l-.924.608Q329.393,1380.306,333.832,1382.968Z" fill="#fff" stroke="#f62ae8" stroke-miterlimit="10" stroke-width="3"/>
    <path id="Path_334" data-name="Path 334" d="M371.362,1416.471l.823-.542q-2.883-3.759-6.018-7.306l-.841.554Q368.482,1412.732,371.362,1416.471Z" fill="#fff" stroke="#f62ae8" stroke-miterlimit="10" stroke-width="3"/>
    <path id="Path_335" data-name="Path 335" d="M359.075,1402.587l.855-.563q-3.982-3.941-8.285-7.543l-.865.57Q355.058,1398.627,359.075,1402.587Z" fill="#fff" stroke="#f62ae8" stroke-miterlimit="10" stroke-width="3"/>
    <path id="Path_336" data-name="Path 336" d="M342.5,1388.65l.878-.578q-4.209-3.006-8.651-5.692l-.893.588Q338.263,1385.631,342.5,1388.65Z" fill="#fff" stroke="#f62ae8" stroke-miterlimit="10" stroke-width="3"/>
    <path id="Path_337" data-name="Path 337" d="M350.78,1395.051l.865-.57q-4.006-3.359-8.269-6.409l-.878.578Q346.746,1391.675,350.78,1395.051Z" fill="#fff" stroke="#f62ae8" stroke-miterlimit="10" stroke-width="3"/>
    <path id="Path_338" data-name="Path 338" d="M300.94,1368.849l1.078-.71q-5.277-1.5-10.724-2.571l-1.18.777Q295.591,1367.377,300.94,1368.849Z" fill="#fff" stroke="#f62ae8" stroke-miterlimit="10" stroke-width="3"/>
    <path id="Path_339" data-name="Path 339" d="M131,1498c0-1.821.046-3.635.117-5.445l-1.024.675c-.055,1.584-.093,3.172-.093,4.77,0,2.729.091,5.437.25,8.126l.962-.633C131.076,1503.007,131,1500.509,131,1498Z" fill="#fff" stroke="#f62ae8" stroke-miterlimit="10" stroke-width="3"/>
    <path id="Path_340" data-name="Path 340" d="M255.421,1364.339l1.674-1.1a134.961,134.961,0,0,0-21.984,3.091l-2.38,1.567A134.3,134.3,0,0,1,255.421,1364.339Z" fill="#fff" stroke="#f62ae8" stroke-miterlimit="10" stroke-width="3"/>
    <path id="Path_341" data-name="Path 341" d="M132.2,1479.985l-1.1.728q-.791,6.174-1.005,12.517l1.024-.675Q131.369,1486.213,132.2,1479.985Z" fill="#fff" stroke="#f62ae8" stroke-miterlimit="10" stroke-width="3"/>
    <path id="Path_342" data-name="Path 342" d="M131.212,1505.493l-.962.633q.309,5.19,1,10.268l.919-.606Q131.5,1510.684,131.212,1505.493Z" fill="#fff" stroke="#f62ae8" stroke-miterlimit="10" stroke-width="3"/>
    <path id="Path_343" data-name="Path 343" d="M134.114,1469.091l-1.168.77q-1.136,5.352-1.848,10.852l1.1-.728Q132.938,1474.482,134.114,1469.091Z" fill="#fff" stroke="#f62ae8" stroke-miterlimit="10" stroke-width="3"/>
    <path id="Path_344" data-name="Path 344" d="M138.681,1453.083l-1.325.874a133.787,133.787,0,0,0-4.41,15.9l1.168-.77A132.853,132.853,0,0,1,138.681,1453.083Z" fill="#fff" stroke="#f62ae8" stroke-miterlimit="10" stroke-width="3"/>
    <path id="Path_345" data-name="Path 345" d="M170.248,1403.248a133.157,133.157,0,0,1,62.483-35.354l2.38-1.567a135.076,135.076,0,0,0-79.224,52.179l2.41-1.587A135.861,135.861,0,0,1,170.248,1403.248Z" fill="#fff" stroke="#f62ae8" stroke-miterlimit="10" stroke-width="3"/>
    <path id="Path_346" data-name="Path 346" d="M158.3,1416.919l-2.41,1.587a135.016,135.016,0,0,0-11.619,19.042l1.627-1.071A133.221,133.221,0,0,1,158.3,1416.919Z" fill="#fff" stroke="#f62ae8" stroke-miterlimit="10" stroke-width="3"/>
    <path id="Path_347" data-name="Path 347" d="M145.9,1436.477l-1.627,1.071a134.193,134.193,0,0,0-6.912,16.409l1.325-.874A132.26,132.26,0,0,1,145.9,1436.477Z" fill="#fff" stroke="#f62ae8" stroke-miterlimit="10" stroke-width="3"/>
  </g>
</svg>
