<svg xmlns="http://www.w3.org/2000/svg" width="72.015" height="72.213" viewBox="0 0 72.015 72.213">
  <g id="Polygon_1" data-name="Polygon 1" transform="matrix(0.695, 0.719, -0.719, 0.695, 33.809, 0)" fill="none" stroke-linecap="round" stroke-linejoin="round">
    <path d="M23.184,7.376a5,5,0,0,1,8.631,0L50.6,39.475A5,5,0,0,1,46.281,47H8.719A5,5,0,0,1,4.4,39.475Z" stroke="none"/>
    <path d="M 27.4999885559082 9.900737762451172 L 27.49999237060547 9.900745391845703 C 27.49999046325684 9.900745391845703 27.49999046325684 9.900749206542969 27.4999885559082 9.900749206542969 L 8.718521118164063 41.99999618530273 L 46.28147888183594 42.00000762939453 L 27.4999885559082 9.900737762451172 M 27.49999809265137 4.900741577148438 C 29.17507743835449 4.900741577148438 30.85015487670898 5.725723266601563 31.81555557250977 7.375682830810547 L 50.5970344543457 39.47493743896484 C 52.54734420776367 42.80818176269531 50.14336776733398 46.99999618530273 46.28147888183594 46.99999618530273 L 8.718521118164063 46.99999618530273 C 4.856620788574219 46.99999618530273 2.452655792236328 42.80818176269531 4.4029541015625 39.47493743896484 L 23.18443298339844 7.375682830810547 C 24.14983940124512 5.725723266601563 25.82491874694824 4.900741577148438 27.49999809265137 4.900741577148438 Z" stroke="none" fill="#3b3bbb"/>
  </g>
</svg>
