<svg xmlns="http://www.w3.org/2000/svg" xmlns:xlink="http://www.w3.org/1999/xlink" width="118" height="184" viewBox="0 0 118 184">
  <defs>
    <clipPath id="clip-path">
      <rect width="184" height="118" fill="none"/>
    </clipPath>
  </defs>
  <g id="Repeat_Grid_1" data-name="Repeat Grid 1" transform="translate(0 184) rotate(-90)" opacity="0.69" clip-path="url(#clip-path)">
    <g transform="translate(-1236 -339)">
      <circle id="Ellipse_147" data-name="Ellipse 147" cx="5" cy="5" r="5" transform="translate(1236 339)" fill="#fff"/>
    </g>
    <g transform="translate(-1209 -339)">
      <circle id="Ellipse_147-2" data-name="Ellipse 147" cx="5" cy="5" r="5" transform="translate(1236 339)" fill="#fff"/>
    </g>
    <g transform="translate(-1182 -339)">
      <circle id="Ellipse_147-3" data-name="Ellipse 147" cx="5" cy="5" r="5" transform="translate(1236 339)" fill="#fff"/>
    </g>
    <g transform="translate(-1155 -339)">
      <circle id="Ellipse_147-4" data-name="Ellipse 147" cx="5" cy="5" r="5" transform="translate(1236 339)" fill="#fff"/>
    </g>
    <g transform="translate(-1128 -339)">
      <circle id="Ellipse_147-5" data-name="Ellipse 147" cx="5" cy="5" r="5" transform="translate(1236 339)" fill="#fff"/>
    </g>
    <g transform="translate(-1101 -339)">
      <circle id="Ellipse_147-6" data-name="Ellipse 147" cx="5" cy="5" r="5" transform="translate(1236 339)" fill="#fff"/>
    </g>
    <g transform="translate(-1074 -339)">
      <circle id="Ellipse_147-7" data-name="Ellipse 147" cx="5" cy="5" r="5" transform="translate(1236 339)" fill="#fff"/>
    </g>
    <g transform="translate(-1236 -314)">
      <circle id="Ellipse_147-8" data-name="Ellipse 147" cx="5" cy="5" r="5" transform="translate(1236 339)" fill="#fff"/>
    </g>
    <g transform="translate(-1209 -314)">
      <circle id="Ellipse_147-9" data-name="Ellipse 147" cx="5" cy="5" r="5" transform="translate(1236 339)" fill="#fff"/>
    </g>
    <g transform="translate(-1182 -314)">
      <circle id="Ellipse_147-10" data-name="Ellipse 147" cx="5" cy="5" r="5" transform="translate(1236 339)" fill="#fff"/>
    </g>
    <g transform="translate(-1155 -314)">
      <circle id="Ellipse_147-11" data-name="Ellipse 147" cx="5" cy="5" r="5" transform="translate(1236 339)" fill="#fff"/>
    </g>
    <g transform="translate(-1128 -314)">
      <circle id="Ellipse_147-12" data-name="Ellipse 147" cx="5" cy="5" r="5" transform="translate(1236 339)" fill="#fff"/>
    </g>
    <g transform="translate(-1101 -314)">
      <circle id="Ellipse_147-13" data-name="Ellipse 147" cx="5" cy="5" r="5" transform="translate(1236 339)" fill="#fff"/>
    </g>
    <g transform="translate(-1074 -314)">
      <circle id="Ellipse_147-14" data-name="Ellipse 147" cx="5" cy="5" r="5" transform="translate(1236 339)" fill="#fff"/>
    </g>
    <g transform="translate(-1236 -289)">
      <circle id="Ellipse_147-15" data-name="Ellipse 147" cx="5" cy="5" r="5" transform="translate(1236 339)" fill="#fff"/>
    </g>
    <g transform="translate(-1209 -289)">
      <circle id="Ellipse_147-16" data-name="Ellipse 147" cx="5" cy="5" r="5" transform="translate(1236 339)" fill="#fff"/>
    </g>
    <g transform="translate(-1182 -289)">
      <circle id="Ellipse_147-17" data-name="Ellipse 147" cx="5" cy="5" r="5" transform="translate(1236 339)" fill="#fff"/>
    </g>
    <g transform="translate(-1155 -289)">
      <circle id="Ellipse_147-18" data-name="Ellipse 147" cx="5" cy="5" r="5" transform="translate(1236 339)" fill="#fff"/>
    </g>
    <g transform="translate(-1128 -289)">
      <circle id="Ellipse_147-19" data-name="Ellipse 147" cx="5" cy="5" r="5" transform="translate(1236 339)" fill="#fff"/>
    </g>
    <g transform="translate(-1101 -289)">
      <circle id="Ellipse_147-20" data-name="Ellipse 147" cx="5" cy="5" r="5" transform="translate(1236 339)" fill="#fff"/>
    </g>
    <g transform="translate(-1074 -289)">
      <circle id="Ellipse_147-21" data-name="Ellipse 147" cx="5" cy="5" r="5" transform="translate(1236 339)" fill="#fff"/>
    </g>
    <g transform="translate(-1236 -264)">
      <circle id="Ellipse_147-22" data-name="Ellipse 147" cx="5" cy="5" r="5" transform="translate(1236 339)" fill="#fff"/>
    </g>
    <g transform="translate(-1209 -264)">
      <circle id="Ellipse_147-23" data-name="Ellipse 147" cx="5" cy="5" r="5" transform="translate(1236 339)" fill="#fff"/>
    </g>
    <g transform="translate(-1182 -264)">
      <circle id="Ellipse_147-24" data-name="Ellipse 147" cx="5" cy="5" r="5" transform="translate(1236 339)" fill="#fff"/>
    </g>
    <g transform="translate(-1155 -264)">
      <circle id="Ellipse_147-25" data-name="Ellipse 147" cx="5" cy="5" r="5" transform="translate(1236 339)" fill="#fff"/>
    </g>
    <g transform="translate(-1128 -264)">
      <circle id="Ellipse_147-26" data-name="Ellipse 147" cx="5" cy="5" r="5" transform="translate(1236 339)" fill="#fff"/>
    </g>
    <g transform="translate(-1101 -264)">
      <circle id="Ellipse_147-27" data-name="Ellipse 147" cx="5" cy="5" r="5" transform="translate(1236 339)" fill="#fff"/>
    </g>
    <g transform="translate(-1074 -264)">
      <circle id="Ellipse_147-28" data-name="Ellipse 147" cx="5" cy="5" r="5" transform="translate(1236 339)" fill="#fff"/>
    </g>
    <g transform="translate(-1236 -239)">
      <circle id="Ellipse_147-29" data-name="Ellipse 147" cx="5" cy="5" r="5" transform="translate(1236 339)" fill="#fff"/>
    </g>
    <g transform="translate(-1209 -239)">
      <circle id="Ellipse_147-30" data-name="Ellipse 147" cx="5" cy="5" r="5" transform="translate(1236 339)" fill="#fff"/>
    </g>
    <g transform="translate(-1182 -239)">
      <circle id="Ellipse_147-31" data-name="Ellipse 147" cx="5" cy="5" r="5" transform="translate(1236 339)" fill="#fff"/>
    </g>
    <g transform="translate(-1155 -239)">
      <circle id="Ellipse_147-32" data-name="Ellipse 147" cx="5" cy="5" r="5" transform="translate(1236 339)" fill="#fff"/>
    </g>
    <g transform="translate(-1128 -239)">
      <circle id="Ellipse_147-33" data-name="Ellipse 147" cx="5" cy="5" r="5" transform="translate(1236 339)" fill="#fff"/>
    </g>
    <g transform="translate(-1101 -239)">
      <circle id="Ellipse_147-34" data-name="Ellipse 147" cx="5" cy="5" r="5" transform="translate(1236 339)" fill="#fff"/>
    </g>
    <g transform="translate(-1074 -239)">
      <circle id="Ellipse_147-35" data-name="Ellipse 147" cx="5" cy="5" r="5" transform="translate(1236 339)" fill="#fff"/>
    </g>
  </g>
</svg>
