<svg xmlns="http://www.w3.org/2000/svg" xmlns:xlink="http://www.w3.org/1999/xlink" width="183.337" height="183.337" viewBox="0 0 183.337 183.337">
  <defs>
    <filter id="Path_353" x="0" y="0" width="183.337" height="183.337" filterUnits="userSpaceOnUse">
      <feOffset dy="3" input="SourceAlpha"/>
      <feGaussianBlur stdDeviation="5" result="blur"/>
      <feFlood flood-opacity="0.161"/>
      <feComposite operator="in" in2="blur"/>
      <feComposite in="SourceGraphic"/>
    </filter>
  </defs>
  <g transform="matrix(1, 0, 0, 1, 0, 0)" filter="url(#Path_353)">
    <g id="Path_353-2" data-name="Path 353" transform="translate(15 12)" fill="#6814c9">
      <path d="M 76.66854858398438 152.3371124267578 C 66.45292663574219 152.3371124267578 56.54340744018555 150.3365936279297 47.21524810791016 146.39111328125 C 42.73178863525391 144.4947662353516 38.40740966796875 142.1475677490234 34.36224746704102 139.4147033691406 C 30.35524940490723 136.7076263427734 26.58720779418945 133.5987091064453 23.16280937194824 130.1743011474609 C 19.7384090423584 126.749885559082 16.62948799133301 122.9818649291992 13.92240905761719 118.9748687744141 C 11.18954849243164 114.9296875 8.842349052429199 110.6053314208984 6.946008682250977 106.1218719482422 C 3.000528573989868 96.79370880126953 1.000008583068848 86.88418579101563 1.000008583068848 76.66854858398438 C 1.000008583068848 66.45292663574219 3.000528573989868 56.54340744018555 6.946008682250977 47.21524810791016 C 8.842349052429199 42.73178863525391 11.18954849243164 38.40740966796875 13.92240905761719 34.36224746704102 C 16.62948799133301 30.35524940490723 19.7384090423584 26.58720779418945 23.16280937194824 23.16280937194824 C 26.58720779418945 19.7384090423584 30.35524940490723 16.62948799133301 34.36224746704102 13.92240905761719 C 38.40740966796875 11.18954849243164 42.73178863525391 8.842349052429199 47.21524810791016 6.946008682250977 C 56.54340744018555 3.000528573989868 66.45292663574219 1.000008583068848 76.66854858398438 1.000008583068848 C 86.88418579101563 1.000008583068848 96.79370880126953 3.000528573989868 106.1218719482422 6.946008682250977 C 110.6053314208984 8.842349052429199 114.9296875 11.18954849243164 118.9748687744141 13.92240905761719 C 122.9818649291992 16.62948799133301 126.749885559082 19.7384090423584 130.1743011474609 23.16280937194824 C 133.5987091064453 26.58720779418945 136.7076263427734 30.35524940490723 139.4147033691406 34.36224746704102 C 142.1475677490234 38.40740966796875 144.4947662353516 42.73178863525391 146.39111328125 47.21524810791016 C 150.3365936279297 56.54340744018555 152.3371124267578 66.45292663574219 152.3371124267578 76.66854858398438 C 152.3371124267578 86.88418579101563 150.3365936279297 96.79370880126953 146.39111328125 106.1218719482422 C 144.4947662353516 110.6053314208984 142.1475677490234 114.9296875 139.4147033691406 118.9748687744141 C 136.7076263427734 122.9818649291992 133.5987091064453 126.749885559082 130.1743011474609 130.1743011474609 C 126.749885559082 133.5987091064453 122.9818649291992 136.7076263427734 118.9748687744141 139.4147033691406 C 114.9296875 142.1475677490234 110.6053314208984 144.4947662353516 106.1218719482422 146.39111328125 C 96.79370880126953 150.3365936279297 86.88418579101563 152.3371124267578 76.66854858398438 152.3371124267578 Z" stroke="none"/>
      <path d="M 76.66854858398438 2 C 66.58748626708984 2 56.80900573730469 3.97393798828125 47.60479736328125 7.86700439453125 C 43.18080139160156 9.738189697265625 38.91371154785156 12.0543212890625 34.92205047607422 14.75102233886719 C 30.96779632568359 17.4224853515625 27.24932098388672 20.49050903320313 23.86991882324219 23.86991882324219 C 20.49050903320313 27.24932098388672 17.4224853515625 30.96779632568359 14.75102233886719 34.92205047607422 C 12.0543212890625 38.91371154785156 9.738189697265625 43.18080139160156 7.86700439453125 47.60479736328125 C 3.97393798828125 56.80900573730469 2 66.58748626708984 2 76.66854858398438 C 2 86.74961090087891 3.97393798828125 96.52809143066406 7.86700439453125 105.7322998046875 C 9.738189697265625 110.1562957763672 12.0543212890625 114.4233856201172 14.75102233886719 118.4150466918945 C 17.4224853515625 122.3693008422852 20.49050903320313 126.087776184082 23.86991882324219 129.4671783447266 C 27.24932098388672 132.8465881347656 30.96779632568359 135.9146118164063 34.92205047607422 138.5860748291016 C 38.91371154785156 141.2827758789063 43.18080139160156 143.5989074707031 47.60479736328125 145.4700927734375 C 56.80900573730469 149.3631591796875 66.58748626708984 151.3370971679688 76.66854858398438 151.3370971679688 C 86.74961090087891 151.3370971679688 96.52809143066406 149.3631591796875 105.7322998046875 145.4700927734375 C 110.1562957763672 143.5989074707031 114.4233856201172 141.2827758789063 118.4150466918945 138.5860748291016 C 122.3693008422852 135.9146118164063 126.087776184082 132.8465881347656 129.4671783447266 129.4671783447266 C 132.8465881347656 126.087776184082 135.9146118164063 122.3693008422852 138.5860748291016 118.4150466918945 C 141.2827758789063 114.4233856201172 143.5989074707031 110.1562957763672 145.4700927734375 105.7322998046875 C 149.3631591796875 96.52809143066406 151.3370971679688 86.74961090087891 151.3370971679688 76.66854858398438 C 151.3370971679688 66.58748626708984 149.3631591796875 56.80900573730469 145.4700927734375 47.60479736328125 C 143.5989074707031 43.18080139160156 141.2827758789063 38.91371154785156 138.5860748291016 34.92205047607422 C 135.9146118164063 30.96779632568359 132.8465881347656 27.24932098388672 129.4671783447266 23.86991882324219 C 126.087776184082 20.49050903320313 122.3693008422852 17.4224853515625 118.4150466918945 14.75102233886719 C 114.4233856201172 12.0543212890625 110.1562957763672 9.738189697265625 105.7322998046875 7.86700439453125 C 96.52809143066406 3.97393798828125 86.74961090087891 2 76.66854858398438 2 M 76.66854858398438 0 C 119.0114288330078 0 153.3370971679688 34.32567596435547 153.3370971679688 76.66854858398438 C 153.3370971679688 119.0114288330078 119.0114288330078 153.3370971679688 76.66854858398438 153.3370971679688 C 34.32567596435547 153.3370971679688 0 119.0114288330078 0 76.66854858398438 C 0 34.32567596435547 34.32567596435547 0 76.66854858398438 0 Z" stroke="none" fill="#fff"/>
    </g>
  </g>
</svg>
