<svg xmlns="http://www.w3.org/2000/svg" width="62.734" height="73.273" viewBox="0 0 62.734 73.273">
  <g id="Polygon_3" data-name="Polygon 3" transform="matrix(0.326, 0.946, -0.946, 0.326, 42.548, 0)" fill="none" stroke-linecap="round" stroke-linejoin="round" opacity="0.55">
    <path d="M25.235,8.368a7,7,0,0,1,11.529,0L54.442,34.029A7,7,0,0,1,48.678,45H13.322A7,7,0,0,1,7.558,34.029Z" stroke="none"/>
    <path d="M 31.00000381469727 10.33903503417969 C 30.6075325012207 10.33903503417969 29.87168502807617 10.45146179199219 29.35299301147461 11.20442581176758 L 11.67543792724609 36.86539077758789 C 11.07895660400391 37.73124694824219 11.3420524597168 38.53075408935547 11.55196762084961 38.93025970458984 C 11.76187515258789 39.32977676391602 12.27102661132813 40 13.32245254516602 40 L 48.67755889892578 40 C 49.72898101806641 40 50.23812103271484 39.32977676391602 50.44804000854492 38.93027114868164 C 50.657958984375 38.53075408935547 50.92105102539063 37.73123550415039 50.32456970214844 36.86539077758789 L 32.64701843261719 11.20442581176758 C 32.12831115722656 10.45146179199219 31.3924617767334 10.33903503417969 31.00000381469727 10.33903503417969 M 31 5.339035034179688 C 33.18675994873047 5.339035034179688 35.37351989746094 6.348655700683594 36.76455688476563 8.367897033691406 L 54.44210815429688 34.02886199951172 C 57.64128494262695 38.67283630371094 54.31681442260742 45 48.67755889892578 45 L 13.32245254516602 45 C 7.683193206787109 45 4.358711242675781 38.67283630371094 7.557899475097656 34.02886199951172 L 25.23545074462891 8.367897033691406 C 26.62648010253906 6.348655700683594 28.81324005126953 5.339035034179688 31 5.339035034179688 Z" stroke="none" fill="#8f90e2"/>
  </g>
</svg>
