<svg xmlns="http://www.w3.org/2000/svg" width="37.575" height="43.775" viewBox="0 0 37.575 43.775">
  <g id="Polygon_2" data-name="Polygon 2" transform="matrix(0.326, 0.946, -0.946, 0.326, 25.529, 0)" fill="none" stroke-linecap="round" stroke-linejoin="round" opacity="0.4">
    <path d="M12.725,8.428a7,7,0,0,1,11.549,0l5.218,7.616A7,7,0,0,1,23.718,27H13.282A7,7,0,0,1,7.507,16.043Z" stroke="none"/>
    <path d="M 18.50000190734863 10.38430404663086 C 18.10634231567383 10.38430404663086 17.36852264404297 10.49727249145508 16.85013198852539 11.25384330749512 L 11.63197135925293 18.86954307556152 C 11.03852272033691 19.73566436767578 11.30240249633789 20.5338134765625 11.51252174377441 20.93249320983887 C 11.72264099121094 21.33117294311523 12.23191261291504 22.00000381469727 13.28184127807617 22.00000381469727 L 23.71816253662109 22.00000381469727 C 24.76809310913086 22.00000381469727 25.27736282348633 21.33117294311523 25.48748207092285 20.93249320983887 C 25.69760131835938 20.5338134765625 25.96148300170898 19.73566436767578 25.3680305480957 18.86954307556152 L 20.14987182617188 11.25384330749512 C 19.6314811706543 10.49727249145508 18.89366149902344 10.38430404663086 18.50000190734863 10.38430404663086 M 18.5000057220459 5.384304046630859 C 20.69217681884766 5.384304046630859 22.88434600830078 6.398763656616211 24.27453231811523 8.427682876586914 L 29.49269104003906 16.04338455200195 C 32.67565155029297 20.68878364562988 29.34941101074219 27.00000381469727 23.71816253662109 27.00000381469727 L 13.28184127807617 27.00000381469727 C 7.650592803955078 27.00000381469727 4.324352264404297 20.68878364562988 7.507312774658203 16.04338455200195 L 12.72547149658203 8.427682876586914 C 14.11566162109375 6.398763656616211 16.30783462524414 5.384304046630859 18.5000057220459 5.384304046630859 Z" stroke="none" fill="#8f90e2"/>
  </g>
</svg>
